# xmcd
#
# Track frame offsets:
#	150
#	13507
#	28497
#	43495
#	60377
#	71057
#	82105
#	95940
#	106197
#	119505
#	131482
#	147119
#	158899
#	171687
#	191612
#	210497
#	231922
#	247262
#	261409
#	276799
#
# Disc length: 3874 seconds
# Revision: 0
# Processed by: cddbd v1.5.2PL0 Copyright (c) Steve Scherf et al.
# Submitted via: dBpowerAMP V12.0
#
DISCID=3d0f2014
DTITLE=Darrell McCall - A Way To Survive - All She Did Was Fall In Love
DYEAR=2009
DGENRE=Country
TTITLE0=A Long Time Ago
TTITLE1=Let Me Be The First To Go
TTITLE2=All She Did Was Fall In Love
TTITLE3=Christmas in Cell #9
TTITLE4=Be A Good Girl
TTITLE5=Gonna Make A Change
TTITLE6=Coco Driel
TTITLE7=Cherie
TTITLE8=The Man I Used To Be
TTITLE9=Lonesome Shade of Blue
TTITLE10=Set Me Down Where Country Music Plays
TTITLE11=Reconsider Leaving Me
TTITLE12=Hide And Go Cheat
TTITLE13=After Texas
TTITLE14=I Guess I'm Gettin' Tired Of Lovin' You
TTITLE15=Secret Memories  (Duet With Mona McCall)
TTITLE16=Wall Of Pictures
TTITLE17=As Long As I'm Dreaming
TTITLE18=If It Ain't Broke, Don't Fix It
TTITLE19=A Way To Survive
EXTD=
EXTT0=
EXTT1=
EXTT2=
EXTT3=
EXTT4=
EXTT5=
EXTT6=
EXTT7=
EXTT8=
EXTT9=
EXTT10=
EXTT11=
EXTT12=
EXTT13=
EXTT14=
EXTT15=
EXTT16=
EXTT17=
EXTT18=
EXTT19=
PLAYORDER=
